# xmcd
#
# Track frame offsets:
#	150
#	14980
#	36553
#	49745
#	61717
#	75073
#	88386
#	101615
#	117616
#	135337
#	150803
#	163575
#	173897
#	185795
#	201986
#	216781
#
# Disc length: 3069 seconds
#
# Revision: 3
# Processed by: cddbd v1.5.1PL0 Copyright (c) Steve Scherf et al.
# Submitted via: audiograbber 1.83.01
#
DISCID=db0bfb10
DTITLE=Compilation - Auf der Autobahn - 16 deutsche Country-Hits
DYEAR=2003
DGENRE=Country
TTITLE0=Western Union - Auf der Autobahn (On the road again)
TTITLE1=Jonny Hill - Ruf Teddybär eins-vier
TTITLE2=Linda Feller - Ich weiß genau, was ich will
TTITLE3=Tom Astor - Hallo, guten Morgen, Deutschland
TTITLE4=Gunter Gabriel - Hey Boß - ich brauch' mehr Geld
TTITLE5=Truck Stop - Take it easy, altes Haus
TTITLE6=Juliane Werding - Morgens Fremde - mittags Freunde
TTITLE7=Linda Feller - And´re Mütter haben auch ein schönes Kind
TTITLE8=Gunter Gabriel - Komm unter meine Decke
TTITLE9=Jonny Hill - Lucille
TTITLE10=Bruce Low - Leise rauscht es am Missouri
TTITLE11=Freddy Quinn - Die schönste Frau von Texas
TTITLE12=Ronny - Kein Gold im Blue River
TTITLE13=Fred Bertelmann - Schön war die Zeit (Carry me back to old Virginny)
TTITLE14=Western Union - Ich möcht´ so gerne mal nach Nashville
TTITLE15=Truck Stop - Der wilde, wilde Westen
EXTD=
EXTT0=
EXTT1=
EXTT2=
EXTT3=
EXTT4=
EXTT5=
EXTT6=
EXTT7=
EXTT8=
EXTT9=
EXTT10=
EXTT11=
EXTT12=
EXTT13=
EXTT14=
EXTT15=
PLAYORDER=
